<?xml version="1.0" encoding="UTF-8"?> <svg xmlns="http://www.w3.org/2000/svg" xmlns:xlink="http://www.w3.org/1999/xlink" version="1.1" id="Слой_1" x="0px" y="0px" viewBox="0 0 1428.1 233.9" style="enable-background:new 0 0 1428.1 233.9;" xml:space="preserve"> <style type="text/css"> .st0{fill:#FFFFFF;} </style> <g> <path class="st0" d="M136.1,68.8h46.2v22.5c12.3-15.8,34.2-25,53.8-25h8.5l-7.2,47.4H231c-31.3,0-48.7,16.1-48.7,41.1v75.3h-46.2 V68.8z"></path> <path class="st0" d="M455.7,26.7c0-15.2,11.7-26.6,26.9-26.6c15.5,0,26.9,11.4,26.9,26.6c0,15.5-11.4,26.9-26.9,26.9 C467.4,53.6,455.7,42.2,455.7,26.7z M459.5,68.8h46.2v161.3h-46.2V68.8z"></path> <path class="st0" d="M559.5,177.6v-66.7h-24V68.8h13.3c8.9,0,13.3-4.4,13.3-13.3V26.4h43.7v42.4h35.1v42.1h-35.1V170 c0,11.4,7,18,19,18h16.1l7.2,42.1h-25.3C584.5,230.1,559.5,212.1,559.5,177.6z"></path> <path class="st0" d="M943.3,149.2l-55.7-80.3h56l31,47.8l31-47.8h55.4l-55.7,80.3l56.6,81h-56l-32.3-48.7L942,230.1h-55.4 L943.3,149.2z"></path> <path class="st0" d="M1086.1,26.7c0-15.2,11.7-26.6,26.9-26.6c15.5,0,26.9,11.4,26.9,26.6c0,15.5-11.4,26.9-26.9,26.9 C1097.8,53.6,1086.1,42.2,1086.1,26.7z M1089.9,68.8h46.2v161.3h-46.2V68.8z"></path> <path class="st0" d="M834.8,179.2c-6.6,8.9-18.7,15.2-33.5,15.2c-19.3,0-34.2-11.7-39.2-30.1h123.4c0.9-4.1,1.3-9.5,1.3-13.9 c0-49.3-37.6-85.4-87-85.4c-49.7,0-87,36.4-87,84.5c0,48.1,37.3,84.5,87.3,84.5c29.3,0,54.4-11.9,70.5-31.2L834.8,179.2z M799.7,104.6c18.3,0,32.9,11.4,37.6,29.1h-75C767.4,115.9,781.3,104.6,799.7,104.6z"></path> <path class="st0" d="M376.6,68.8v89.8c0,18.3-12.7,30.7-31.3,30.7c-17.4,0-28.8-12-28.8-30.1V68.8h-46.2v104.4 c0,36.7,23.7,60.7,59.5,60.7c19,0,34.8-6.6,46.8-19.6l8.3,15.8h37.9V68.8H376.6z"></path> <path class="st0" d="M1369.2,65c-23.1,0-41.4,9.2-54.4,26.3c-9.8-16.4-27.5-26.3-50-26.3c-18.3,0-33.8,6.3-45.9,19l-6.6-15.2h-39.6 v161.3h46.2v-90.8c0-17.7,12.3-29.7,30.4-29.7c16.8,0,27.8,11.7,27.8,29.1v91.4h46.2v-90.8c0-17.7,12.3-29.7,30.4-29.7 c16.8,0,27.8,11.7,27.8,29.1v91.4h46.2V124.8C1427.7,88.7,1404.3,65,1369.2,65z"></path> <g> <path class="st0" d="M25,110.7H0.7v-42H25V57.9C25,20,46.5,0.4,88.2,0.4h27.9l-8,42H92.7c-13.9,0-21.5,7.3-21.5,20.5v5.7h35.1v42 H71.2v119.2H25V110.7z"></path> </g> </g> </svg> 