<?xml version="1.0" encoding="UTF-8"?> <svg xmlns="http://www.w3.org/2000/svg" xmlns:xlink="http://www.w3.org/1999/xlink" version="1.1" id="Слой_1" x="0px" y="0px" viewBox="0 0 386 512" style="enable-background:new 0 0 386 512;" xml:space="preserve"> <style type="text/css"> .st0{fill:#38B556;} </style> <g> <path class="st0" d="M264.7,255.8h80.3L249.6,383l61.9,82.9c43.2-34.7,70.8-88,70.8-147.7c0-104.7-84.9-189.6-189.6-189.6 c-20.6,0-44,3.7-62.3,10.3l85.1,114.4L121,380.6H40.6l95.3-127.3L74,170.4c-43.2,34.7-70.8,88-70.8,147.7 c0,104.7,84.9,189.6,189.6,189.6c20.6,0,43.5-3.6,62-10.3L170,383L264.7,255.8z"></path> <path class="st0" d="M201.6,105.1c16.6,0,48.3-2.8,70.8-22.3c31.7-27.6,32.8-78,32.8-78S254.9-1,223.3,26.6 c-19.7,17.1-27.5,43-30.7,60.2c-1.9,10.5-2.1,17.7-2.1,17.7S194.8,105.1,201.6,105.1z"></path> </g> </svg> 